<mxfile host="65bd71144e">
    <diagram name="具体实施步骤" id="implementation-steps">
        <mxGraphModel dx="1019" dy="667" grid="1" gridSize="10" guides="1" tooltips="1" connect="1" arrows="1" fold="1" page="1" pageScale="1" pageWidth="1169" pageHeight="827" math="0" shadow="0">
            <root>
                <mxCell id="0"/>
                <mxCell id="1" parent="0"/>
                <mxCell id="phase1-title" value="🔧 第一阶段：建立测试基础设施" style="rounded=1;whiteSpace=wrap;html=1;fontSize=18;fontStyle=1;fillColor=#e3f2fd;strokeColor=#1976d2;strokeWidth=3;fontColor=#2c3e50;align=center;" parent="1" vertex="1">
                    <mxGeometry x="40" y="120" width="520" height="60" as="geometry"/>
                </mxCell>
                <mxCell id="step1-1" value="📁 构建测试集" style="rounded=1;whiteSpace=wrap;html=1;fontSize=14;fillColor=#ffffff;strokeColor=#1976d2;strokeWidth=2;fontColor=#2c3e50;align=center;" parent="1" vertex="1">
                    <mxGeometry x="40" y="220" width="160" height="50" as="geometry"/>
                </mxCell>
                <mxCell id="step1-1-detail" value="&lt;span style=&quot;color: rgb(63, 63, 63); font-size: 14px;&quot;&gt;•&amp;nbsp;&lt;/span&gt;&lt;span style=&quot;font-size: 14px; background-color: transparent;&quot;&gt;收集多种典型场景的 Excel 文件&lt;/span&gt;&lt;br&gt;&lt;span style=&quot;color: rgb(63, 63, 63); font-size: 14px;&quot;&gt;•&amp;nbsp;&lt;/span&gt;&lt;span style=&quot;font-size: 14px; background-color: transparent;&quot;&gt;涵盖不同格式和布局&lt;/span&gt;&lt;br&gt;&lt;span style=&quot;color: rgb(63, 63, 63); font-size: 14px;&quot;&gt;•&amp;nbsp;&lt;/span&gt;&lt;span style=&quot;font-size: 14px; background-color: transparent;&quot;&gt;包含边界情况和异常数据&lt;/span&gt;" style="rounded=1;whiteSpace=wrap;html=1;fontSize=11;fillColor=#f8f9fa;strokeColor=#6c757d;strokeWidth=1;fontColor=#2c3e50;align=left;verticalAlign=top;spacingLeft=10;spacingTop=8;spacing=2;" parent="1" vertex="1">
                    <mxGeometry x="40" y="290" width="160" height="130" as="geometry"/>
                </mxCell>
                <mxCell id="step1-2" value="📝 定义标准结果" style="rounded=1;whiteSpace=wrap;html=1;fontSize=14;fillColor=#ffffff;strokeColor=#1976d2;strokeWidth=2;fontColor=#2c3e50;align=center;" parent="1" vertex="1">
                    <mxGeometry x="220" y="220" width="160" height="50" as="geometry"/>
                </mxCell>
                <mxCell id="step1-2-detail" value="&lt;font style=&quot;font-size: 14px;&quot;&gt;• 人工标注每个文件的预期结果&lt;br&gt;• 建立验证规则的标准答案&lt;br&gt;• 形成可比较的基准数据&lt;/font&gt;" style="rounded=1;whiteSpace=wrap;html=1;fontSize=11;fillColor=#f8f9fa;strokeColor=#6c757d;strokeWidth=1;fontColor=#2c3e50;align=left;verticalAlign=top;spacingLeft=10;spacingTop=8;" parent="1" vertex="1">
                    <mxGeometry x="220" y="290" width="160" height="130" as="geometry"/>
                </mxCell>
                <mxCell id="step1-3" value="⚙️ 自动化脚本" style="rounded=1;whiteSpace=wrap;html=1;fontSize=14;fillColor=#ffffff;strokeColor=#1976d2;strokeWidth=2;fontColor=#2c3e50;align=center;" parent="1" vertex="1">
                    <mxGeometry x="400" y="220" width="160" height="50" as="geometry"/>
                </mxCell>
                <mxCell id="step1-3-detail" value="&lt;font style=&quot;font-size: 14px;&quot;&gt;• 创建可重复执行的测试脚本&lt;br&gt;• 支持批量测试和结果对比&lt;br&gt;• 集成到 CI/CD 流程中&lt;/font&gt;" style="rounded=1;whiteSpace=wrap;html=1;fontSize=11;fillColor=#f8f9fa;strokeColor=#6c757d;strokeWidth=1;fontColor=#2c3e50;align=left;verticalAlign=top;spacingLeft=10;spacingTop=8;" parent="1" vertex="1">
                    <mxGeometry x="400" y="290" width="160" height="130" as="geometry"/>
                </mxCell>
                <mxCell id="phase2-title" value="🤖 第二阶段：启动 AI 驱动的优化循环" style="rounded=1;whiteSpace=wrap;html=1;fontSize=18;fontStyle=1;fillColor=#e8f5e8;strokeColor=#4caf50;strokeWidth=3;fontColor=#2c3e50;align=center;" parent="1" vertex="1">
                    <mxGeometry x="760" y="120" width="430" height="60" as="geometry"/>
                </mxCell>
                <mxCell id="cycle-center" value="🔄&lt;br/&gt;优化循环" style="ellipse;whiteSpace=wrap;html=1;fontSize=16;fontStyle=1;fillColor=#fff3e0;strokeColor=#f57c00;strokeWidth=3;fontColor=#2c3e50;" parent="1" vertex="1">
                    <mxGeometry x="930" y="305" width="100" height="100" as="geometry"/>
                </mxCell>
                <mxCell id="cycle-step1" value="💭LLM 执行&lt;br&gt;&amp;lt;算法, 规则, 测试文件&amp;gt;" style="rounded=1;whiteSpace=wrap;html=1;fontSize=15;fillColor=#ffffff;strokeColor=#4caf50;strokeWidth=2;fontColor=#2c3e50;align=center;" parent="1" vertex="1">
                    <mxGeometry x="760" y="220" width="180" height="60" as="geometry"/>
                </mxCell>
                <mxCell id="cycle-step2" value="📊 获得初始输出&lt;br&gt;对比预期结果" style="rounded=1;whiteSpace=wrap;html=1;fontSize=15;fillColor=#ffffff;strokeColor=#4caf50;strokeWidth=2;fontColor=#2c3e50;align=center;" parent="1" vertex="1">
                    <mxGeometry x="1020" y="220" width="140" height="60" as="geometry"/>
                </mxCell>
                <mxCell id="cycle-step3" value="🔍 分析差异&lt;br&gt;&amp;lt;算法, 预期, 实际&amp;gt;" style="rounded=1;whiteSpace=wrap;html=1;fontSize=15;fillColor=#ffffff;strokeColor=#4caf50;strokeWidth=2;fontColor=#2c3e50;align=center;" parent="1" vertex="1">
                    <mxGeometry x="1020" y="440" width="140" height="60" as="geometry"/>
                </mxCell>
                <mxCell id="cycle-step4" value="⚡ 生成改进方案&lt;br&gt;应用新算法" style="rounded=1;whiteSpace=wrap;html=1;fontSize=15;fillColor=#ffffff;strokeColor=#4caf50;strokeWidth=2;fontColor=#2c3e50;align=center;" parent="1" vertex="1">
                    <mxGeometry x="760" y="440" width="140" height="60" as="geometry"/>
                </mxCell>
                <mxCell id="cycle-arrow1" value="" style="endArrow=classic;html=1;rounded=0;strokeColor=#4caf50;strokeWidth=2;curved=1;entryX=0;entryY=0.3;entryDx=0;entryDy=0;" parent="1" source="cycle-step1" target="cycle-center" edge="1">
                    <mxGeometry width="50" height="50" relative="1" as="geometry">
                        <mxPoint x="750" y="350" as="sourcePoint"/>
                        <mxPoint x="800" y="300" as="targetPoint"/>
                        <Array as="points">
                            <mxPoint x="890" y="336"/>
                        </Array>
                    </mxGeometry>
                </mxCell>
                <mxCell id="cycle-arrow2" value="" style="endArrow=classic;html=1;rounded=0;strokeColor=#4caf50;strokeWidth=2;curved=1;exitX=0.3;exitY=0;exitDx=0;exitDy=0;entryX=0;entryY=0.5;entryDx=0;entryDy=0;" parent="1" source="cycle-center" target="cycle-step2" edge="1">
                    <mxGeometry width="50" height="50" relative="1" as="geometry">
                        <mxPoint x="850" y="280" as="sourcePoint"/>
                        <mxPoint x="900" y="230" as="targetPoint"/>
                        <Array as="points">
                            <mxPoint x="970" y="270"/>
                        </Array>
                    </mxGeometry>
                </mxCell>
                <mxCell id="cycle-arrow3" value="" style="endArrow=classic;html=1;rounded=0;strokeColor=#4caf50;strokeWidth=2;curved=1;exitX=0.5;exitY=0;exitDx=0;exitDy=0;entryX=1;entryY=0.5;entryDx=0;entryDy=0;" parent="1" source="cycle-step3" target="cycle-center" edge="1">
                    <mxGeometry width="50" height="50" relative="1" as="geometry">
                        <mxPoint x="950" y="350" as="sourcePoint"/>
                        <mxPoint x="1000" y="300" as="targetPoint"/>
                        <Array as="points">
                            <mxPoint x="1090" y="370"/>
                        </Array>
                    </mxGeometry>
                </mxCell>
                <mxCell id="cycle-arrow4" value="" style="endArrow=classic;html=1;rounded=0;strokeColor=#4caf50;strokeWidth=2;curved=1;exitX=0.5;exitY=1;exitDx=0;exitDy=0;entryX=1;entryY=0.5;entryDx=0;entryDy=0;" parent="1" source="cycle-center" target="cycle-step4" edge="1">
                    <mxGeometry width="50" height="50" relative="1" as="geometry">
                        <mxPoint x="800" y="450" as="sourcePoint"/>
                        <mxPoint x="850" y="400" as="targetPoint"/>
                        <Array as="points">
                            <mxPoint x="950" y="450"/>
                        </Array>
                    </mxGeometry>
                </mxCell>
                <mxCell id="cycle-arrow5" value="" style="endArrow=classic;html=1;rounded=1;strokeColor=#4caf50;strokeWidth=2;curved=0;exitX=0;exitY=0.5;exitDx=0;exitDy=0;entryX=0;entryY=0.5;entryDx=0;entryDy=0;" parent="1" source="cycle-step4" target="cycle-step1" edge="1">
                    <mxGeometry width="50" height="50" relative="1" as="geometry">
                        <mxPoint x="700" y="350" as="sourcePoint"/>
                        <mxPoint x="750" y="300" as="targetPoint"/>
                        <Array as="points">
                            <mxPoint x="690" y="470"/>
                            <mxPoint x="690" y="250"/>
                        </Array>
                    </mxGeometry>
                </mxCell>
                <mxCell id="phase-arrow" value="基础设施完成&lt;br&gt;启动优化循环" style="endArrow=classic;html=1;rounded=0;strokeColor=#666666;strokeWidth=3;curved=1;exitX=1;exitY=0.5;exitDx=0;exitDy=0;entryX=0;entryY=0.5;entryDx=0;entryDy=0;fontSize=17;" parent="1" source="phase1-title" target="phase2-title" edge="1">
                    <mxGeometry width="50" height="50" relative="1" as="geometry">
                        <mxPoint x="550" y="200" as="sourcePoint"/>
                        <mxPoint x="600" y="150" as="targetPoint"/>
                        <mxPoint as="offset"/>
                    </mxGeometry>
                </mxCell>
                <mxCell id="4" value="" style="edgeStyle=none;html=1;" parent="1" source="success-condition" target="3" edge="1">
                    <mxGeometry relative="1" as="geometry"/>
                </mxCell>
                <mxCell id="5" value="" style="edgeStyle=none;html=1;" parent="1" source="success-condition" target="3" edge="1">
                    <mxGeometry relative="1" as="geometry"/>
                </mxCell>
                <mxCell id="success-condition" value="&lt;font style=&quot;font-size: 17px;&quot;&gt;&lt;u&gt;迭代直至达标&lt;/u&gt;&lt;/font&gt;" style="rounded=1;whiteSpace=wrap;html=1;fontSize=12;fillColor=#e8f5e8;strokeColor=#4caf50;strokeWidth=2;fontColor=#2c3e50;align=left;verticalAlign=top;spacingLeft=15;spacingTop=10;" parent="1" vertex="1">
                    <mxGeometry x="690" y="560" width="150" height="40" as="geometry"/>
                </mxCell>
                <mxCell id="key-elements" value="🎯 关键要素" style="text;html=1;strokeColor=none;fillColor=none;align=center;verticalAlign=middle;whiteSpace=wrap;rounded=0;fontSize=16;fontStyle=1;fontColor=#2c3e50;" parent="1" vertex="1">
                    <mxGeometry x="240" y="470" width="120" height="30" as="geometry"/>
                </mxCell>
                <mxCell id="key1" value="🔄 快速反馈" style="rounded=1;whiteSpace=wrap;html=1;fontSize=16;fillColor=#fff3e0;strokeColor=#f57c00;strokeWidth=1;fontColor=#2c3e50;align=center;" parent="1" vertex="1">
                    <mxGeometry x="40" y="520" width="100" height="40" as="geometry"/>
                </mxCell>
                <mxCell id="key2" value="📊 数据驱动" style="rounded=1;whiteSpace=wrap;html=1;fontSize=16;fillColor=#e3f2fd;strokeColor=#1976d2;strokeWidth=1;fontColor=#2c3e50;align=center;" parent="1" vertex="1">
                    <mxGeometry x="250" y="520" width="100" height="40" as="geometry"/>
                </mxCell>
                <mxCell id="key3" value="🎯 持续优化" style="rounded=1;whiteSpace=wrap;html=1;fontSize=16;fillColor=#ffebee;strokeColor=#f44336;strokeWidth=1;fontColor=#2c3e50;align=center;" parent="1" vertex="1">
                    <mxGeometry x="460" y="520" width="100" height="40" as="geometry"/>
                </mxCell>
                <mxCell id="connect1" value="" style="endArrow=classic;html=1;rounded=0;strokeColor=#1976d2;strokeWidth=1;exitX=0.5;exitY=1;exitDx=0;exitDy=0;entryX=0.5;entryY=0;entryDx=0;entryDy=0;" parent="1" source="step1-1" target="step1-1-detail" edge="1">
                    <mxGeometry width="50" height="50" relative="1" as="geometry">
                        <mxPoint x="400" y="350" as="sourcePoint"/>
                        <mxPoint x="450" y="300" as="targetPoint"/>
                    </mxGeometry>
                </mxCell>
                <mxCell id="connect2" value="" style="endArrow=classic;html=1;rounded=0;strokeColor=#1976d2;strokeWidth=1;exitX=0.5;exitY=1;exitDx=0;exitDy=0;entryX=0.5;entryY=0;entryDx=0;entryDy=0;" parent="1" source="step1-2" target="step1-2-detail" edge="1">
                    <mxGeometry width="50" height="50" relative="1" as="geometry">
                        <mxPoint x="400" y="350" as="sourcePoint"/>
                        <mxPoint x="450" y="300" as="targetPoint"/>
                    </mxGeometry>
                </mxCell>
                <mxCell id="connect3" value="" style="endArrow=classic;html=1;rounded=0;strokeColor=#1976d2;strokeWidth=1;exitX=0.5;exitY=1;exitDx=0;exitDy=0;entryX=0.5;entryY=0;entryDx=0;entryDy=0;" parent="1" source="step1-3" target="step1-3-detail" edge="1">
                    <mxGeometry width="50" height="50" relative="1" as="geometry">
                        <mxPoint x="400" y="350" as="sourcePoint"/>
                        <mxPoint x="450" y="300" as="targetPoint"/>
                    </mxGeometry>
                </mxCell>
                <mxCell id="step-flow1" value="" style="endArrow=classic;html=1;rounded=1;strokeColor=#666666;strokeWidth=2;exitX=1;exitY=0.5;exitDx=0;exitDy=0;entryX=1;entryY=0.5;entryDx=0;entryDy=0;curved=0;" parent="1" source="cycle-step2" target="cycle-step3" edge="1">
                    <mxGeometry width="50" height="50" relative="1" as="geometry">
                        <mxPoint x="800" y="350" as="sourcePoint"/>
                        <mxPoint x="850" y="300" as="targetPoint"/>
                        <Array as="points">
                            <mxPoint x="1190" y="250"/>
                            <mxPoint x="1190" y="470"/>
                        </Array>
                    </mxGeometry>
                </mxCell>
                <mxCell id="3" value="&lt;span style=&quot;color: rgb(44, 62, 80);&quot;&gt;&lt;span style=&quot;color: rgb(44, 62, 80);&quot;&gt;✅&amp;nbsp;&lt;/span&gt;准确率达到预期&lt;/span&gt;" style="whiteSpace=wrap;html=1;align=left;verticalAlign=top;fillColor=#e8f5e8;strokeColor=#4caf50;fontColor=#2c3e50;rounded=1;strokeWidth=2;spacingLeft=15;spacingTop=0;fontSize=15;" parent="1" vertex="1">
                    <mxGeometry x="880" y="560" width="150" height="40" as="geometry"/>
                </mxCell>
                <mxCell id="8" value="&lt;span style=&quot;color: rgb(44, 62, 80);&quot;&gt;&lt;span style=&quot;color: rgb(44, 62, 80);&quot;&gt;✅&amp;nbsp;&lt;/span&gt;通过所有测试用例&lt;/span&gt;" style="whiteSpace=wrap;html=1;align=left;verticalAlign=top;fillColor=#e8f5e8;strokeColor=#4caf50;fontColor=#2c3e50;rounded=1;strokeWidth=2;spacingLeft=15;spacingTop=0;fontSize=15;" parent="1" vertex="1">
                    <mxGeometry x="950" y="590" width="160" height="40" as="geometry"/>
                </mxCell>
                <mxCell id="9" value="&lt;span style=&quot;color: rgb(44, 62, 80);&quot;&gt;&lt;span style=&quot;color: rgb(44, 62, 80);&quot;&gt;✅&amp;nbsp;&lt;/span&gt;算法稳定可靠&lt;/span&gt;" style="whiteSpace=wrap;html=1;align=left;verticalAlign=top;fillColor=#e8f5e8;strokeColor=#4caf50;fontColor=#2c3e50;rounded=1;strokeWidth=2;spacingLeft=15;spacingTop=0;fontSize=15;" parent="1" vertex="1">
                    <mxGeometry x="1030" y="620" width="160" height="40" as="geometry"/>
                </mxCell>
            </root>
        </mxGraphModel>
    </diagram>
</mxfile>